<svg xmlns="http://www.w3.org/2000/svg" viewBox="0 0 100 100">
  <defs>
    <linearGradient id="grad1" x1="0%" y1="0%" x2="100%" y2="100%">
      <stop offset="0%" stop-color="#34d399" />
      <stop offset="100%" stop-color="#059669" />
    </linearGradient>
  </defs>
  <rect width="100" height="100" rx="24" fill="url(#grad1)" />
  <g transform="translate(26, 26) scale(2)">
    <path d="M6 9H4.5a2.5 2.5 0 0 1 0-5H6" fill="none" stroke="#09090b" stroke-width="2" stroke-linecap="round" stroke-linejoin="round"/>
    <path d="M18 9h1.5a2.5 2.5 0 0 0 0-5H18" fill="none" stroke="#09090b" stroke-width="2" stroke-linecap="round" stroke-linejoin="round"/>
    <path d="M4 22h16" fill="none" stroke="#09090b" stroke-width="2" stroke-linecap="round" stroke-linejoin="round"/>
    <path d="M10 14.66V17c0 .55-.47.98-.97 1.21C7.85 18.75 7 20.24 7 22" fill="none" stroke="#09090b" stroke-width="2" stroke-linecap="round" stroke-linejoin="round"/>
    <path d="M14 14.66V17c0 .55.47.98.97 1.21C16.15 18.75 17 20.24 17 22" fill="none" stroke="#09090b" stroke-width="2" stroke-linecap="round" stroke-linejoin="round"/>
    <path d="M18 2H6v7c0 6 3 10 6 10s6-4 6-10V2z" fill="none" stroke="#09090b" stroke-width="2" stroke-linecap="round" stroke-linejoin="round"/>
  </g>
</svg>
